<svg xmlns="http://www.w3.org/2000/svg" xmlns:xlink="http://www.w3.org/1999/xlink" width="200" height="200" version="1.1" viewBox="0 0 200 200"><title>icon</title><desc>Created with Sketch.</desc><g id="icon" fill="none" fill-rule="evenodd" stroke="none" stroke-width="1"><circle id="Oval" cx="100" cy="100" r="100" fill="#152526"/><g id="Group" fill-rule="nonzero" transform="translate(51.000000, 51.000000)"><path id="Shape" fill="#00D2D7" d="M49.5,5.5 C43.4335,5.5 38.5,10.4335 38.5,16.5 C38.5,22.5665 43.4335,27.5 49.5,27.5 C53.5535,27.5 57.066108,25.2725 58.974608,22 L93.5,22 C96.5415,22 99,19.536 99,16.5 C99,13.464 96.5415,11 93.5,11 L58.974608,11 C57.066108,7.7275 53.5535,5.5 49.5,5.5 Z M77,38.5 C70.9335,38.5 66,43.4335 66,49.5 C66,55.5665 70.9335,60.5 77,60.5 C81.0535,60.5 84.566108,58.2725 86.474608,55 L93.5,55 C96.5415,55 99,52.536 99,49.5 C99,46.464 96.5415,44 93.5,44 L86.474608,44 C84.566108,40.7275 81.0535,38.5 77,38.5 Z M44,71.5 C37.9335,71.5 33,76.4335 33,82.5 C33,88.5665 37.9335,93.5 44,93.5 C48.0535,93.5 51.566108,91.2725 53.474608,88 L93.5,88 C96.5415,88 99,85.536 99,82.5 C99,79.464 96.5415,77 93.5,77 L53.474608,77 C51.566108,73.7275 48.0535,71.5 44,71.5 Z"/><path id="Path" fill="#72F1F4" d="M5.5,-5.32907052e-15 C2.4585,-5.32907052e-15 -1.77635684e-14,2.464 -1.77635684e-14,5.5 L-1.77635684e-14,93.5 C-1.77635684e-14,96.536 2.4585,99 5.5,99 C8.5415,99 11,96.536 11,93.5 L11,88 L16.5,88 C19.5415,88 22,85.536 22,82.5 C22,79.464 19.5415,77 16.5,77 L11,77 L11,55 L49.5,55 C52.5415,55 55,52.536 55,49.5 C55,46.464 52.5415,44 49.5,44 L11,44 L11,22 L22,22 C25.0415,22 27.5,19.536 27.5,16.5 C27.5,13.464 25.0415,11 22,11 L11,11 L11,5.5 C11,2.464 8.5415,-5.32907052e-15 5.5,-5.32907052e-15 Z"/></g></g></svg>