<?xml version="1.0" encoding="UTF-8"?>
<svg width="260px" height="100px" viewBox="0 0 260 100" version="1.1" xmlns="http://www.w3.org/2000/svg" xmlns:xlink="http://www.w3.org/1999/xlink">
    <!-- Generator: Sketch 54.1 (76490) - https://sketchapp.com -->
    <title>Logo on dark</title>
    <desc>Created with Sketch.</desc>
    <g id="Logo-on-dark" stroke="none" stroke-width="1" fill="none" fill-rule="evenodd">
        <g id="Group-3" transform="translate(60.000000, 34.000000)" fill-rule="nonzero">
            <g id="Group-2" transform="translate(39.000000, 0.000000)" fill="#EFFFFF">
                <path d="M5.28275862,0.827586207 L5.28275862,20.5572414 L16.7365517,20.5572414 L16.7365517,25.1917241 L0.482758621,25.1917241 L0.482758621,0.827586207 L5.28275862,0.827586207 Z M18.1268966,17.7765517 C18.1268966,16.2979236 18.4744793,14.973799 19.1696552,13.8041379 C19.8648311,12.6344769 20.8468902,11.7131068 22.1158621,11.04 C23.384834,10.3668932 24.8248196,10.0303448 26.4358621,10.0303448 C28.0469046,10.0303448 29.4648215,10.3668932 30.6896552,11.04 C31.9144889,11.7131068 32.8579278,12.6344769 33.52,13.8041379 C34.1820723,14.973799 34.5131035,16.2979236 34.5131035,17.7765517 C34.5131035,19.2551798 34.1820723,20.5903389 33.52,21.782069 C32.8579278,22.9737991 31.9144889,23.9062035 30.6896552,24.5793103 C29.4648215,25.2524172 28.0248359,25.5889655 26.3696552,25.5889655 C24.7586127,25.5889655 23.3296614,25.2744859 22.0827587,24.6455172 C20.8358559,24.0165486 19.8648311,23.1172472 19.1696552,21.9475862 C18.4744793,20.7779252 18.1268966,19.3875943 18.1268966,17.7765517 Z M22.7944828,17.8096552 C22.7944828,18.9572471 23.125514,19.9117203 23.7875862,20.6731034 C24.4496585,21.4344866 25.2882708,21.8151724 26.3034483,21.8151724 C27.3627639,21.8151724 28.2179278,21.4400038 28.8689655,20.6896552 C29.5200033,19.9393066 29.8455173,18.9793162 29.8455173,17.8096552 C29.8455173,16.6399942 29.5200033,15.6800038 28.8689655,14.9296552 C28.2179278,14.1793066 27.3627639,13.8041379 26.3034483,13.8041379 C25.2882708,13.8041379 24.4496585,14.1848238 23.7875862,14.9462069 C23.125514,15.70759 22.7944828,16.6620632 22.7944828,17.8096552 Z M52.6537932,10.7255172 L52.6537932,25.1917241 C52.6537932,26.5600068 52.2620729,27.8013737 51.4786208,28.9158621 C50.6951686,30.0303504 49.6358688,30.9020658 48.3006897,31.5310345 C46.9655106,32.1600031 45.5144907,32.4744828 43.9475863,32.4744828 C42.7558562,32.4744828 41.713108,32.3310359 40.8193104,32.0441379 C39.9255128,31.7572399 39.2082786,31.4372431 38.6675863,31.0841379 C38.1268939,30.7310327 37.4813831,30.2455203 36.7310345,29.6275862 L39.4455173,26.4496552 C40.1075896,27.0675893 40.7641347,27.5531017 41.4151725,27.9062069 C42.0662102,28.2593121 42.888271,28.4358621 43.8813794,28.4358621 C45.0510404,28.4358621 46.0330995,28.1434512 46.8275863,27.5586207 C47.622073,26.9737902 48.0193104,26.1627638 48.0193104,25.1255172 L48.0193104,23.0731034 C47.5779289,23.823452 46.899315,24.4303425 45.9834483,24.8937931 C45.0675817,25.3572437 43.9475929,25.5889655 42.6234483,25.5889655 C41.3213729,25.5889655 40.1131091,25.2524172 38.9986208,24.5793103 C37.8841324,23.9062035 36.9958654,22.9793162 36.3337932,21.7986207 C35.6717209,20.6179251 35.3406897,19.310352 35.3406897,17.8758621 C35.3406897,16.4193031 35.6882724,15.084144 36.3834483,13.8703448 C37.0786242,12.6565457 37.9944771,11.7075896 39.1310345,11.0234483 C40.267592,10.3393069 41.4648214,9.99724138 42.7227587,9.99724138 C43.9144888,9.99724138 44.9737885,10.1682742 45.9006897,10.5103448 C46.8275909,10.8524155 47.5337907,11.2993076 48.0193104,11.8510345 L48.3834483,10.7255172 L52.6537932,10.7255172 Z M44.0137932,21.8151724 C45.8675955,21.8151724 47.2027546,21.0869038 48.0193104,19.6303448 L48.0193104,16.0882759 C47.7103433,15.3820654 47.197245,14.8193124 46.4800001,14.4 C45.7627551,13.9806876 44.9406944,13.7710345 44.0137932,13.7710345 C42.8882703,13.7710345 41.9393143,14.1462031 41.1668966,14.8965517 C40.394479,15.6469003 40.0082759,16.5958563 40.0082759,17.7434483 C40.0082759,18.8910402 40.394479,19.8565478 41.1668966,20.64 C41.9393143,21.4234522 42.8882703,21.8151724 44.0137932,21.8151724 Z M71.2910346,10.7255172 L71.2910346,25.1917241 L66.6565518,25.1917241 L66.6565518,23.4041379 C65.2662,24.8606969 63.6551817,25.5889655 61.8234484,25.5889655 C59.682748,25.5889655 57.9448344,24.9489719 56.6096553,23.6689655 C55.2744762,22.3889591 54.6068966,20.4910471 54.6068966,17.9751724 C54.6068966,16.386199 54.9324106,14.9903508 55.5834484,13.7875862 C56.2344861,12.5848216 57.1006843,11.6524171 58.1820691,10.9903448 C59.2634538,10.3282726 60.4220629,9.99724138 61.6579311,9.99724138 C62.9379375,9.99724138 63.9530998,10.1903429 64.7034484,10.5765517 C65.4537969,10.9627606 66.1158593,11.508962 66.6896553,12.2151724 L66.9875863,10.7255172 L71.2910346,10.7255172 Z M63.1475863,21.8151724 C64.7586288,21.8151724 65.9282723,21.0869038 66.6565518,19.6303448 L66.6565518,16.0882759 C66.3917229,15.3820654 65.9337965,14.8193124 65.2827587,14.4 C64.631721,13.9806876 63.8648321,13.7710345 62.9820691,13.7710345 C61.9668916,13.7710345 61.1006933,14.1462031 60.3834484,14.8965517 C59.6662034,15.6469003 59.3075863,16.5958563 59.3075863,17.7434483 C59.3075863,18.4937969 59.4841363,19.1834451 59.8372415,19.8124138 C60.1903467,20.4413825 60.6593075,20.932412 61.244138,21.2855172 C61.8289685,21.6386225 62.4634449,21.8151724 63.1475863,21.8151724 Z M78.9048277,14.0358621 C79.3020711,13.2634444 79.8482725,12.568279 80.5434484,11.9503448 C81.2386243,11.3324107 81.9503413,10.8524155 82.6786208,10.5103448 C83.4069003,10.1682742 83.9806877,9.99724138 84.4000001,9.99724138 L84.168276,14.6317241 C84.0358615,14.6096551 83.8482772,14.5986207 83.6055174,14.5986207 C82.6786162,14.5986207 81.8620726,14.8413769 81.1558622,15.3268966 C80.4496518,15.8124162 79.9089675,16.4358583 79.5337932,17.1972414 C79.1586189,17.9586245 78.9710346,18.7365478 78.9710346,19.5310345 L78.9710346,25.1917241 L74.3696553,25.1917241 L74.3696553,10.7255172 L78.5406898,10.7255172 L78.9048277,14.0358621 Z M103.423448,10.7255172 L94.088276,32.1434483 L89.6193105,32.1434483 L93.0951726,24.4303448 L86.408276,10.7255172 L91.6055174,10.7255172 L95.412414,19.2662069 L99.252414,10.7255172 L103.423448,10.7255172 Z" id="Logary"></path>
            </g>
            <g id="Group" transform="translate(-0.000000, -0.000000)">
                <path d="M14.5,1.61111111 C12.7229444,1.61111111 11.2777778,3.05627778 11.2777778,4.83333333 C11.2777778,6.61038889 12.7229444,8.05555556 14.5,8.05555556 C15.6873889,8.05555556 16.7163347,7.40305556 17.2753902,6.44444444 L27.3888889,6.44444444 C28.2798333,6.44444444 29,5.72266667 29,4.83333333 C29,3.944 28.2798333,3.22222222 27.3888889,3.22222222 L17.2753902,3.22222222 C16.7163347,2.26361111 15.6873889,1.61111111 14.5,1.61111111 Z M22.5555556,11.2777778 C20.7785,11.2777778 19.3333333,12.7229444 19.3333333,14.5 C19.3333333,16.2770556 20.7785,17.7222222 22.5555556,17.7222222 C23.7429444,17.7222222 24.7718902,17.0697222 25.3309458,16.1111111 L27.3888889,16.1111111 C28.2798333,16.1111111 29,15.3893333 29,14.5 C29,13.6106667 28.2798333,12.8888889 27.3888889,12.8888889 L25.3309458,12.8888889 C24.7718902,11.9302778 23.7429444,11.2777778 22.5555556,11.2777778 Z M12.8888889,20.9444444 C11.1118333,20.9444444 9.66666667,22.3896111 9.66666667,24.1666667 C9.66666667,25.9437222 11.1118333,27.3888889 12.8888889,27.3888889 C14.0762778,27.3888889 15.1052236,26.7363889 15.6642791,25.7777778 L27.3888889,25.7777778 C28.2798333,25.7777778 29,25.056 29,24.1666667 C29,23.2773333 28.2798333,22.5555556 27.3888889,22.5555556 L15.6642791,22.5555556 C15.1052236,21.5969444 14.0762778,20.9444444 12.8888889,20.9444444 Z" id="Shape" fill="#00D2D7"></path>
                <path d="M1.61111111,-5.32907052e-15 C0.720166667,-5.32907052e-15 -1.77635684e-14,0.721777778 -1.77635684e-14,1.61111111 L-1.77635684e-14,27.3888889 C-1.77635684e-14,28.2782222 0.720166667,29 1.61111111,29 C2.50205556,29 3.22222222,28.2782222 3.22222222,27.3888889 L3.22222222,25.7777778 L4.83333333,25.7777778 C5.72427778,25.7777778 6.44444444,25.056 6.44444444,24.1666667 C6.44444444,23.2773333 5.72427778,22.5555556 4.83333333,22.5555556 L3.22222222,22.5555556 L3.22222222,16.1111111 L14.5,16.1111111 C15.3909444,16.1111111 16.1111111,15.3893333 16.1111111,14.5 C16.1111111,13.6106667 15.3909444,12.8888889 14.5,12.8888889 L3.22222222,12.8888889 L3.22222222,6.44444444 L6.44444444,6.44444444 C7.33538889,6.44444444 8.05555556,5.72266667 8.05555556,4.83333333 C8.05555556,3.944 7.33538889,3.22222222 6.44444444,3.22222222 L3.22222222,3.22222222 L3.22222222,1.61111111 C3.22222222,0.721777778 2.50205556,-5.32907052e-15 1.61111111,-5.32907052e-15 Z" id="Path" fill="#68E1E4"></path>
            </g>
        </g>
    </g>
</svg>